<svg width="236" height="26" fill="none" xmlns="http://www.w3.org/2000/svg"><path fill-rule="evenodd" clip-rule="evenodd" d="M75.651 23.303c0 .507-.255.76-.766.76h-8.997a.745.745 0 0 1-.53-.19c-.135-.126-.203-.305-.203-.537a.77.77 0 0 1 .138-.479.978.978 0 0 1 .432-.297l.701-.215a.73.73 0 0 0 .408-.314c.097-.155.146-.375.146-.662v-9.553a.643.643 0 0 0-.114-.389c-.076-.104-.217-.2-.424-.289l-.945-.314c-.25-.121-.43-.25-.538-.388a.789.789 0 0 1-.163-.505c0-.198.068-.36.204-.487l.053-.045a.83.83 0 0 1 .51-.145h1.43l-.012-.097a1.345 1.345 0 0 0-.229-.556l-.554-.802a5.236 5.236 0 0 1-.554-1.066c-.163-.413-.245-.923-.245-1.529 0-1.443.49-2.598 1.467-3.463C67.844.876 69.235.444 71.04.444c1.162 0 2.127.187 2.893.562.766.374 1.339.873 1.72 1.496.38.622.57 1.303.57 2.041 0 .87-.226 1.523-.677 1.959-.45.435-1.03.653-1.736.653-.782 0-1.412-.254-1.89-.76-.478-.508-.717-1.18-.717-2.017V2.907c0-.386-.076-.67-.228-.852-.153-.181-.386-.272-.701-.272-.402 0-.707.137-.913.413-.207.275-.31.672-.31 1.19 0 .529.123 1.025.367 1.488.244.462.546.895.904 1.297.36.402.718.788 1.076 1.157.359.37.66.733.905 1.091l.07.107c.132.215.22.429.263.641l.015.087h2.414c.25 0 .443.052.58.157.135.104.203.267.203.487 0 .331-.141.6-.424.81-.282.21-.728.314-1.337.314H72.93V21.32c0 .308.046.545.139.71a.588.588 0 0 0 .448.298l1.402.215c.25.033.434.113.554.24.12.126.18.3.18.52Zm-32.092.38c-.978.474-2.119.711-3.423.711-1.38 0-2.616-.292-3.708-.876a6.4 6.4 0 0 1-2.583-2.537c-.63-1.107-.945-2.455-.945-4.041 0-1.532.328-2.901.986-4.108a7.379 7.379 0 0 1 2.746-2.86c1.174-.699 2.543-1.049 4.107-1.049 1.337 0 2.464.199 3.382.595.919.397 1.62.934 2.103 1.612a3.82 3.82 0 0 1 .725 2.272c0 .882-.252 1.574-.758 2.075-.505.501-1.192.752-2.061.752-.891 0-1.568-.256-2.03-.769-.461-.512-.692-1.215-.692-2.107v-1.058c0-.54-.098-.948-.294-1.223-.195-.275-.472-.413-.83-.413-.36 0-.683.146-.97.438-.289.292-.511.73-.669 1.314-.158.584-.236 1.306-.236 2.165 0 1.234.182 2.27.546 3.107.364.838.86 1.466 1.491 1.885.63.418 1.347.628 2.151.628.805 0 1.478-.119 2.021-.356.544-.236.962-.636 1.255-1.198.163-.154.291-.253.384-.297a.622.622 0 0 1 .269-.066.374.374 0 0 1 .268.157c.071.093.1.24.09.438-.087 1.08-.418 2.033-.994 2.86-.576.825-1.353 1.476-2.33 1.95Zm16.568-.33c-1.223.672-2.643 1.008-4.262 1.008-1.576 0-2.959-.328-4.148-.983a7.067 7.067 0 0 1-2.78-2.72c-.662-1.156-.993-2.495-.993-4.016 0-1.454.347-2.763 1.043-3.925.695-1.163 1.657-2.086 2.884-2.769 1.228-.683 2.64-1.025 4.238-1.025 1.587 0 2.972.33 4.156.992a7.107 7.107 0 0 1 2.771 2.744c.663 1.168.994 2.518.994 4.05 0 1.454-.345 2.757-1.035 3.908-.69 1.152-1.646 2.064-2.868 2.736Zm-3.024-.71c-.337.065-.665-.084-.986-.447-.32-.364-.624-.975-.912-1.835-.288-.86-.563-1.989-.824-3.388-.25-1.4-.39-2.551-.423-3.455-.033-.903.032-1.587.195-2.05.163-.462.413-.732.75-.81.337-.065.666.083.986.447.32.364.628.975.92 1.835.294.86.571 1.989.832 3.388.26 1.4.405 2.554.432 3.463.027.909-.043 1.595-.212 2.058-.168.463-.42.727-.758.793Zm29.159 1.42c.51 0 .766-.253.766-.76 0-.22-.06-.394-.18-.52-.12-.127-.304-.207-.554-.24l-1.401-.215a.589.589 0 0 1-.449-.297c-.092-.166-.138-.403-.138-.711V11.022h1.157c.609 0 1.054-.104 1.337-.314.282-.21.423-.479.423-.81 0-.22-.068-.383-.204-.487-.135-.105-.328-.157-.578-.157h-2.414l-.015-.087a1.998 1.998 0 0 0-.264-.64l-.07-.108a8.285 8.285 0 0 0-.904-1.09 37.09 37.09 0 0 1-1.076-1.158 6.526 6.526 0 0 1-.905-1.297 3.139 3.139 0 0 1-.366-1.488c0-.518.103-.915.31-1.19.206-.276.51-.413.912-.413.315 0 .549.09.701.272.152.182.228.466.228.852v1.47c0 .838.24 1.51.717 2.017.478.507 1.109.76 1.89.76.707 0 1.286-.217 1.737-.652.45-.436.676-1.088.676-1.959 0-.738-.19-1.419-.57-2.041-.38-.623-.954-1.122-1.72-1.496-.766-.375-1.73-.562-2.893-.562-1.804 0-3.194.432-4.172 1.297-.978.865-1.467 2.02-1.467 3.463 0 .606.081 1.116.244 1.53.163.412.348.768.555 1.065l.554.802c.122.178.198.363.229.556l.011.097h-1.43a.83.83 0 0 0-.51.145l-.053.045a.637.637 0 0 0-.203.487c0 .199.054.367.163.505.108.137.288.267.538.388l.945.314c.206.088.348.185.424.29a.643.643 0 0 1 .114.388v9.553c0 .287-.05.507-.147.662a.73.73 0 0 1-.407.314l-.701.215a.978.978 0 0 0-.432.297.77.77 0 0 0-.139.48c0 .23.068.41.204.537.136.126.313.19.53.19h8.997Zm12.761-.479c-1.053.54-2.27.81-3.65.81-1.522 0-2.858-.316-4.01-.95a6.821 6.821 0 0 1-2.697-2.661c-.647-1.14-.97-2.46-.97-3.959 0-1.576.312-2.956.937-4.14a6.684 6.684 0 0 1 2.714-2.77c1.184-.66 2.608-.99 4.27-.99 1.413 0 2.63.277 3.651.834 1.021.556 1.806 1.311 2.355 2.264.549.954.823 2.014.823 3.182 0 .507-.136.906-.407 1.198l-.065.065c-.268.25-.637.373-1.109.373h-7.45l.015.077c.198.907.536 1.634 1.014 2.18.814.93 1.901 1.396 3.26 1.396.869 0 1.637-.198 2.306-.595.668-.396 1.116-.947 1.344-1.652a1.24 1.24 0 0 1 .351-.29.641.641 0 0 1 .269-.074c.108 0 .201.044.277.132.076.088.114.237.114.446 0 1.08-.294 2.07-.88 2.967-.587.898-1.408 1.617-2.462 2.157Zm-5.779-8.068a12.973 12.973 0 0 1-.023-.791c0-1.036.076-1.851.228-2.446.153-.595.348-1.017.587-1.265.24-.248.505-.372.799-.372.38 0 .736.325 1.067.975.332.65.497 1.73.497 3.24 0 .463-.206.694-.619.694h-2.534l-.002-.035Zm21.361 8.068c-1.054.54-2.271.81-3.651.81-1.521 0-2.858-.316-4.009-.95a6.824 6.824 0 0 1-2.698-2.661c-.646-1.14-.97-2.46-.97-3.959 0-1.576.313-2.956.938-4.14a6.68 6.68 0 0 1 2.713-2.77c1.185-.66 2.608-.99 4.271-.99 1.412 0 2.629.277 3.651.834 1.021.556 1.806 1.311 2.355 2.264.548.954.823 2.014.823 3.182 0 .507-.136.906-.408 1.198l-.065.065c-.267.25-.637.373-1.108.373h-7.451l.016.077c.198.907.535 1.634 1.013 2.18.815.93 1.902 1.396 3.26 1.396.869 0 1.638-.198 2.306-.595.668-.396 1.117-.947 1.345-1.652.13-.144.247-.24.35-.29a.641.641 0 0 1 .269-.074c.109 0 .201.044.277.132.076.088.114.237.114.446a5.31 5.31 0 0 1-.88 2.967c-.587.898-1.407 1.617-2.461 2.157Zm-5.779-8.068a12.586 12.586 0 0 1-.023-.791c0-1.036.076-1.851.228-2.446.152-.595.348-1.017.587-1.265s.505-.372.798-.372c.381 0 .736.325 1.068.975.331.65.497 1.73.497 3.24 0 .463-.206.694-.619.694h-2.534l-.002-.035Zm19.674 8.341c-.136.138-.334.207-.595.207h-8.15c-.239 0-.426-.066-.562-.199-.136-.132-.204-.314-.204-.545a.74.74 0 0 1 .123-.438c.081-.116.192-.223.334-.322l.375-.15a.55.55 0 0 0 .293-.313c.054-.144.081-.38.081-.711v-8.397c0-.264-.029-.454-.089-.57a.617.617 0 0 0-.302-.273l-.423-.05a1.043 1.043 0 0 1-.335-.28.644.644 0 0 1-.106-.38c0-.177.055-.334.163-.472.109-.137.294-.256.555-.355l4.628-1.339c.272-.11.5-.187.685-.231a2.09 2.09 0 0 1 .473-.066c.184 0 .323.066.415.198l.03.048c.076.138.129.36.158.663l.124 2.568.028-.095c.055-.178.116-.35.182-.514.396-.987.921-1.72 1.573-2.199.652-.48 1.363-.719 2.135-.719.934 0 1.651.314 2.151.942.5.628.75 1.582.75 2.86 0 1.267-.261 2.198-.782 2.793-.522.595-1.196.893-2.021.893-.805 0-1.399-.204-1.785-.612-.386-.407-.59-.986-.611-1.735l-.017-.662c-.011-.253-.059-.451-.146-.595-.087-.143-.229-.214-.424-.214-.196 0-.367.101-.513.305-.147.204-.259.516-.335.934-.076.419-.114.953-.114 1.604v5.818c0 .308.049.553.147.735.098.182.25.295.456.34l1.223.247c.228.033.391.119.489.256.097.138.146.3.146.488 0 .22-.068.4-.203.537Zm13.03.504c1.619 0 3.04-.336 4.263-1.008 1.222-.672 2.178-1.584 2.868-2.736.69-1.151 1.035-2.454 1.035-3.909 0-1.531-.331-2.881-.994-4.05a7.111 7.111 0 0 0-2.771-2.743c-1.184-.661-2.57-.992-4.156-.992-1.597 0-3.01.342-4.238 1.025-1.228.683-2.189 1.606-2.885 2.769-.695 1.162-1.043 2.47-1.043 3.925 0 1.52.332 2.86.995 4.017a7.065 7.065 0 0 0 2.778 2.719c1.19.655 2.573.983 4.148.983Zm.253-2.165c.321.363.649.512.986.446.337-.066.59-.33.758-.793.168-.463.239-1.149.212-2.058-.027-.91-.171-2.063-.432-3.463s-.538-2.529-.831-3.388c-.294-.86-.601-1.471-.921-1.835-.321-.364-.649-.512-.986-.446-.337.077-.587.347-.75.81-.163.463-.228 1.146-.195 2.05.032.903.173 2.054.423 3.454.261 1.4.535 2.529.823 3.388.288.86.593 1.471.913 1.835Zm20.838 2.198c.913 0 1.662-.168 2.249-.504.587-.336 1.024-.735 1.312-1.198.288-.463.432-.887.432-1.273a.749.749 0 0 0-.106-.413.324.324 0 0 0-.285-.166.324.324 0 0 0-.147.034.332.332 0 0 0-.114.099c-.054.198-.138.336-.252.413a.647.647 0 0 1-.367.116c-.185 0-.323-.064-.416-.19-.092-.127-.138-.295-.138-.505v-7.305c0-1.455-.492-2.582-1.475-3.38-.984-.8-2.524-1.199-4.621-1.199-1.63 0-2.991.204-4.083.612-1.092.407-1.912.928-2.461 1.562-.549.633-.823 1.28-.823 1.942 0 .705.204 1.242.611 1.611.408.37.997.554 1.769.554.945 0 1.689-.256 2.232-.768.544-.513.815-1.177.815-1.992v-1.256c0-.309.095-.549.286-.72.19-.17.426-.256.709-.256.304 0 .546.113.725.34.179.225.269.531.269.917l-.001 4.818-.086-.019a5.442 5.442 0 0 0-.911-.087l-.176-.002c-2.336 0-4.077.397-5.223 1.19-1.147.794-1.72 1.901-1.72 3.323 0 1.08.394 1.967 1.182 2.66.788.695 1.833 1.042 3.137 1.042.978 0 1.891-.2 2.738-.603.636-.302 1.153-.698 1.55-1.189l.022-.028.024.074c.126.357.355.677.689.96l.103.084c.603.468 1.453.702 2.551.702Zm-5.615-3.115c.266.358.617.537 1.051.537l.094-.003c.185-.013.364-.065.537-.155l.053-.03v-4.242l-.081-.025a2.528 2.528 0 0 0-.652-.074c-.423 0-.763.198-1.018.595-.256.397-.383.98-.383 1.752 0 .738.133 1.286.399 1.645Zm17.105 3.165c1.935 0 3.418-.446 4.45-1.339s1.548-2.11 1.548-3.653c0-.937-.173-1.758-.521-2.463-.348-.705-.956-1.33-1.826-1.876-.869-.545-2.091-1.06-3.667-1.545-.587-.188-1.04-.378-1.361-.57-.32-.193-.54-.4-.66-.62a1.473 1.473 0 0 1-.179-.711c0-.375.136-.678.407-.91.272-.23.674-.346 1.206-.346.739 0 1.437.248 2.095.744.657.495 1.383 1.344 2.176 2.545.206.254.413.438.619.554.206.116.402.151.587.107a.575.575 0 0 0 .424-.454c.054-.237.043-.576-.033-1.017l-.424-3.041c-.043-.32-.125-.546-.244-.678a.607.607 0 0 0-.473-.198c-.174 0-.391.06-.652.182-.261.12-.519.245-.774.371-.255.127-.448.19-.579.19-.119 0-.296-.066-.529-.198-.234-.132-.563-.264-.986-.396-.424-.133-.973-.199-1.647-.199-1.119 0-2.127.204-3.023.612-.896.407-1.603.989-2.119 1.744-.516.754-.774 1.655-.774 2.702 0 .926.193 1.736.579 2.43.385.694.975 1.289 1.768 1.785s1.793.898 2.999 1.206c.782.21 1.383.422 1.801.637.418.215.706.449.864.702.157.254.236.535.236.843 0 .408-.136.744-.407 1.009-.272.264-.685.396-1.239.396a3.412 3.412 0 0 1-1.491-.338c-.473-.226-.959-.615-1.459-1.166-.5-.55-1.06-1.306-1.679-2.264-.185-.254-.394-.43-.627-.53a.84.84 0 0 0-.709.017c-.229.089-.375.276-.44.562-.066.287-.049.64.048 1.058l.506 3.29c.076.33.184.55.326.66.141.11.293.166.456.166.185 0 .41-.06.676-.182l.799-.364c.266-.12.481-.181.644-.181.163 0 .377.06.644.181.266.122.614.243 1.043.364.429.121.97.182 1.621.182Zm15.452-.62c-.717.38-1.565.57-2.543.57-1.652 0-2.893-.402-3.724-1.206-.831-.805-1.247-2.072-1.247-3.802v-7.471c0-.231-.022-.408-.065-.529-.044-.121-.152-.22-.326-.297l-.766-.248c-.185-.089-.304-.196-.359-.323a1.204 1.204 0 0 1-.081-.47c0-.232.081-.422.244-.571a.861.861 0 0 1 .603-.223h.799a.543.543 0 0 0 .31-.116c.108-.077.255-.231.44-.463l3.015-2.529a2.81 2.81 0 0 1 .652-.603c.217-.138.434-.207.652-.207.25 0 .445.078.586.232l.045.054c.112.155.167.38.167.673v2.959h3.407c.239 0 .424.052.554.157.13.104.196.267.196.487 0 .309-.136.573-.408.794l-.061.045c-.273.19-.688.285-1.243.285h-2.445v7.538c0 .826.139 1.438.416 1.834.277.397.682.595 1.214.595.228 0 .44-.05.636-.149.195-.099.372-.228.53-.388.157-.16.307-.339.448-.537.141-.198.277-.397.407-.595a.243.243 0 0 1 .286.058c.081.082.116.25.105.504-.076.892-.323 1.677-.741 2.355a4.364 4.364 0 0 1-1.703 1.587Zm10.675.57c1.38 0 2.597-.27 3.651-.81 1.054-.54 1.875-1.259 2.461-2.157a5.31 5.31 0 0 0 .88-2.967c0-.209-.038-.358-.114-.446a.352.352 0 0 0-.277-.132.645.645 0 0 0-.269.074c-.103.05-.22.146-.35.29-.228.705-.677 1.256-1.345 1.652-.668.397-1.437.595-2.306.595-1.358 0-2.445-.465-3.26-1.396-.477-.546-.815-1.273-1.013-2.18l-.016-.077h7.451c.471 0 .841-.124 1.109-.373l.064-.064c.272-.293.408-.692.408-1.199 0-1.168-.274-2.229-.823-3.182-.549-.953-1.334-1.708-2.355-2.264-1.022-.557-2.239-.835-3.651-.835-1.663 0-3.086.33-4.27.992a6.682 6.682 0 0 0-2.714 2.769c-.625 1.184-.937 2.564-.937 4.14 0 1.499.323 2.818.969 3.959a6.824 6.824 0 0 0 2.698 2.66c1.152.634 2.488.951 4.009.951Zm-2.151-9.67c0 .274.008.538.023.792l.002.035h2.534c.413 0 .619-.231.619-.694 0-1.51-.166-2.59-.497-3.24-.331-.65-.687-.975-1.068-.975-.293 0-.559.124-.798.372s-.435.67-.587 1.265c-.152.595-.228 1.41-.228 2.446Zm19.102 9.34c.261 0 .459-.07.595-.207a.732.732 0 0 0 .204-.537.82.82 0 0 0-.147-.488c-.098-.137-.261-.223-.489-.256l-1.223-.248a.647.647 0 0 1-.456-.339c-.098-.181-.147-.427-.147-.735v-5.818c0-.65.038-1.185.115-1.604.076-.418.187-.73.334-.934.146-.204.317-.305.513-.305s.337.071.424.214c.087.144.136.342.147.595l.016.662c.022.749.225 1.328.611 1.735.386.408.981.612 1.785.612.826 0 1.499-.298 2.021-.893.521-.595.782-1.526.782-2.793 0-1.278-.25-2.232-.75-2.86-.499-.628-1.217-.942-2.151-.942-.772 0-1.483.24-2.135.72-.652.478-1.176 1.211-1.573 2.197a6.543 6.543 0 0 0-.182.515l-.028.096-.124-2.57c-.029-.303-.082-.524-.158-.662l-.03-.048c-.092-.132-.23-.198-.415-.198a2.09 2.09 0 0 0-.473.066 4.907 4.907 0 0 0-.684.231l-4.629 1.34c-.261.098-.446.217-.554.354a.738.738 0 0 0-.163.472c0 .154.035.28.106.38.07.099.182.193.334.28l.423.05a.617.617 0 0 1 .302.273c.06.116.09.306.09.57v8.397c0 .33-.028.567-.082.71a.55.55 0 0 1-.293.315l-.375.149c-.141.099-.253.206-.334.322a.739.739 0 0 0-.122.438c0 .231.067.413.203.545.136.133.324.199.563.199h8.149Zm17.162-.959c-1.032.893-2.515 1.339-4.449 1.339-.652 0-1.193-.06-1.622-.182a7.507 7.507 0 0 1-1.043-.364c-.266-.12-.481-.181-.644-.181-.163 0-.377.06-.644.181l-.798.364c-.266.121-.492.182-.677.182a.726.726 0 0 1-.456-.165c-.141-.11-.25-.331-.326-.662l-.505-3.289c-.098-.419-.114-.771-.049-1.058.065-.286.212-.473.44-.562a.84.84 0 0 1 .709-.016c.234.099.443.275.627.529.62.958 1.179 1.713 1.679 2.264.5.551.986.94 1.459 1.166.473.225.97.338 1.491.338.554 0 .967-.132 1.239-.396.272-.265.407-.6.407-1.009 0-.308-.078-.59-.236-.843-.157-.253-.445-.487-.864-.702-.418-.215-1.018-.427-1.801-.637-1.206-.308-2.205-.71-2.999-1.206-.793-.496-1.382-1.091-1.768-1.785-.386-.694-.579-1.504-.579-2.43 0-1.047.258-1.948.775-2.702.516-.755 1.222-1.337 2.118-1.744.897-.408 1.905-.612 3.024-.612.673 0 1.222.066 1.646.199.424.132.752.264.986.396.234.132.41.199.53.199.13 0 .323-.064.578-.19.256-.127.514-.251.774-.372.261-.122.479-.182.652-.182.196 0 .354.066.473.198.12.132.201.358.245.678l.423 3.041c.076.44.087.78.033 1.017a.574.574 0 0 1-.424.454c-.185.044-.38.008-.587-.107-.206-.116-.412-.3-.619-.554-.793-1.201-1.518-2.05-2.176-2.545-.657-.496-1.355-.744-2.094-.744-.533 0-.935.116-1.206.347a1.136 1.136 0 0 0-.408.909c0 .253.06.49.18.71.119.221.339.428.66.62.32.193.774.383 1.361.57 1.575.486 2.798 1 3.667 1.546.869.546 1.478 1.171 1.825 1.876.348.706.522 1.526.522 2.463 0 1.543-.516 2.76-1.549 3.653Z" fill="#fff"/><path fill-rule="evenodd" clip-rule="evenodd" d="M14.39 4.447C10.874.935 5.664.429 2.775 3.322c-2.89 2.89-2.385 8.1 1.124 11.613a10.607 10.607 0 0 0 3.153 2.164c.373-2.17 1.444-4.257 3.07-5.97a23.029 23.029 0 0 0-1.666-.511C5.046 9.682 3.35 6.836 2.955 3.5c.327.394.626.807.923 1.219.577.799 1.15 1.594 1.928 2.234 1.21.997 2.539 1.381 3.992 1.802l.17.05a7.17 7.17 0 0 1 1.835.84c1.443-1.055 3.07-1.757 4.75-2.047a10.573 10.573 0 0 0-2.164-3.151ZM8.445 17.933c.224-2.173 1.277-4.299 2.964-5.986 3.515-3.512 8.724-4.019 11.613-1.125 2.89 2.89 2.386 8.1-1.127 11.613-1.687 1.687-3.813 2.74-5.986 2.965-.29.029-.576.044-.856.044-1.87 0-3.539-.656-4.769-1.886-1.416-1.414-2.07-3.412-1.839-5.625Zm5.14 1.784c1.153-.88 2.4-1.227 3.755-1.598 3.411-.936 5.104-3.781 5.502-7.117-.325.391-.62.802-.916 1.21-.579.803-1.154 1.6-1.936 2.243-1.213.998-2.545 1.383-4.005 1.806l-.155.045c-3.338.969-4.988 3.79-5.369 7.074.329-.395.63-.805.93-1.213.65-.886 1.293-1.761 2.195-2.45Z" fill="#0E8784"/></svg>